<svg xmlns="http://www.w3.org/2000/svg" viewBox="0 0 512 512"><defs><style>.cls-1{fill:#27273d;}.cls-2{fill:#d6a034;}.cls-3{fill:#fff;stroke:#fff;stroke-miterlimit:10;}.cls-4{fill:#f6c752;}.cls-5{fill:#e5a82e;}.cls-6{fill:#cc9129;}.cls-7{fill:#e0b044;}.cls-8{fill:#ffe5a4;}.cls-9{fill:#f6d372;}.cls-10{fill:#f7bb38;}.cls-11{fill:#f7dc97;}</style></defs><g id="BULINE"><circle class="cls-1" cx="256" cy="256" r="256"/></g><g id="Icons"><polygon class="cls-2" points="425.99 276.59 85.3 276.59 255.64 358.8 425.99 276.59"/><rect class="cls-3" x="111.18" y="66" width="291.09" height="344.99" rx="7.28"/><path class="cls-4" d="M326.08,194.24,306,120.93s0,0,0,0l-.07-.18s0-.09-.07-.14a1.1,1.1,0,0,0-.09-.14l-.09-.14-.12-.12-.12-.11-.13-.1-.15-.09-.14-.06-.18-.07,0,0-.1,0-.19,0h-.34l-.19,0-.1,0,0,0-.18.07-.14.06-.14.09a.71.71,0,0,0-.14.1l-.12.11-.11.12a.71.71,0,0,0-.1.14l-.09.14a1.47,1.47,0,0,0-.06.14,1.34,1.34,0,0,0-.07.18s0,0,0,0l-20.1,73.31a1.73,1.73,0,0,0,1.21,2.13,1.82,1.82,0,0,0,.46.06,1.74,1.74,0,0,0,1.67-1.28L304.31,128l18.43,67.2a1.74,1.74,0,0,0,1.67,1.28,1.82,1.82,0,0,0,.46-.06A1.73,1.73,0,0,0,326.08,194.24Z"/><path class="cls-5" d="M282.65,193.89H326a2.25,2.25,0,0,1,2.25,2.25V201a20.42,20.42,0,0,1-20.42,20.42h-7A20.42,20.42,0,0,1,280.4,201v-4.82A2.25,2.25,0,0,1,282.65,193.89Z"/><path class="cls-6" d="M307.75,221.38h-6.93A20.42,20.42,0,0,1,280.4,201v-4.82a2.25,2.25,0,0,1,2.25-2.25h6.93a2.25,2.25,0,0,0-2.25,2.25V201A20.42,20.42,0,0,0,307.75,221.38Z"/><circle class="cls-4" cx="320.76" cy="205.44" r="3.23"/><circle class="cls-4" cx="320.76" cy="198.72" r="2.29"/><path class="cls-4" d="M230.91,194.24l-20.1-73.31a.05.05,0,0,1,0,0,1.34,1.34,0,0,0-.07-.18l-.06-.14-.09-.14-.1-.14-.12-.12a.43.43,0,0,0-.12-.11l-.13-.1-.14-.09-.15-.06-.17-.07,0,0-.1,0-.19,0H209l-.19,0-.1,0-.05,0-.17.07-.15.06-.14.09-.14.1-.11.11-.12.12a1.7,1.7,0,0,0-.1.14l-.09.14-.06.14a1.34,1.34,0,0,0-.07.18.05.05,0,0,1,0,0l-20.1,73.31a1.74,1.74,0,0,0,1.21,2.13,1.88,1.88,0,0,0,.46.06,1.74,1.74,0,0,0,1.67-1.28L209.13,128l18.43,67.2a1.74,1.74,0,0,0,3.35-.91Z"/><rect class="cls-6" x="199.8" y="117.96" width="113.68" height="6.87" rx="3.44"/><path class="cls-4" d="M237.25,223.52H276a4,4,0,0,1,4,4v8.12a0,0,0,0,1,0,0H233.24a0,0,0,0,1,0,0v-8.12A4,4,0,0,1,237.25,223.52Z"/><path class="cls-7" d="M280.05,231.66v4H233.24v-8.12a4,4,0,0,1,4-4h.32v.95a7.19,7.19,0,0,0,7.2,7.19Z"/><path class="cls-5" d="M227,235.25h59.26a4.87,4.87,0,0,1,4.87,4.87v4.58a2.68,2.68,0,0,1-2.68,2.68H224.83a2.68,2.68,0,0,1-2.68-2.68v-4.58A4.87,4.87,0,0,1,227,235.25Z"/><path class="cls-6" d="M291.14,244.42v.26a2.68,2.68,0,0,1-2.68,2.68H224.83a2.68,2.68,0,0,1-2.69-2.68v-4.57a4.87,4.87,0,0,1,4.38-4.85,4.78,4.78,0,0,0-.39,1.9v4.58a2.68,2.68,0,0,0,2.68,2.68Z"/><path class="cls-5" d="M256.64,98.81h0a5.55,5.55,0,0,1,5.55,5.55V223.52a0,0,0,0,1,0,0H251.1a0,0,0,0,1,0,0V104.35A5.55,5.55,0,0,1,256.64,98.81Z"/><rect class="cls-6" x="251.1" y="215.66" width="11.09" height="7.86"/><circle class="cls-4" cx="256.64" cy="121.39" r="11.09"/><circle class="cls-8" cx="256.64" cy="121.39" r="7.28"/><path class="cls-5" d="M187.47,193.89H230.8a2.25,2.25,0,0,1,2.25,2.25V201a20.42,20.42,0,0,1-20.42,20.42h-7A20.42,20.42,0,0,1,185.22,201v-4.82A2.25,2.25,0,0,1,187.47,193.89Z"/><path class="cls-6" d="M212.57,221.38h-6.93A20.42,20.42,0,0,1,185.22,201v-4.82a2.25,2.25,0,0,1,2.25-2.25h6.93a2.25,2.25,0,0,0-2.25,2.25V201A20.42,20.42,0,0,0,212.57,221.38Z"/><circle class="cls-4" cx="225.58" cy="205.44" r="3.23"/><circle class="cls-4" cx="225.58" cy="198.72" r="2.29"/><polygon class="cls-9" points="255.64 358.8 85.3 276.59 85.3 441 425.99 441 425.99 276.59 255.64 358.8"/><path class="cls-10" d="M426,441,265.57,336.93a18.26,18.26,0,0,0-19.85,0L85.3,441Z"/><circle class="cls-11" cx="402.27" cy="364.17" r="10.32"/><circle class="cls-11" cx="402.27" cy="342.68" r="7.31"/></g></svg>