<svg xmlns="http://www.w3.org/2000/svg" viewBox="0 0 512 512"><defs><style>.cls-1{fill:#934cf5;}.cls-2{fill:#f6d372;}.cls-3{fill:#f6c752;}.cls-4{fill:#e0af41;}.cls-5{fill:#cc9129;}</style></defs><g id="BULINE"><circle class="cls-1" cx="256" cy="256" r="256"/></g><g id="Icons"><path class="cls-2" d="M409.75,194.38c-22.05-36.6-4.05-63.09,9.19-76A15,15,0,0,0,420,98L388.67,60.85a26.29,26.29,0,0,0-23.37-9.12c-46.91,6-81.31-10.4-98-21a21.07,21.07,0,0,0-22.55,0c-16.67,10.57-51.07,26.92-98,21a26.3,26.3,0,0,0-23.37,9.12L92.08,98a15,15,0,0,0,1.07,20.45c13.24,12.88,31.24,39.37,9.19,76,0,0-108.58,155.89,136.67,286.08a36.36,36.36,0,0,0,34.07,0C518.33,350.27,409.75,194.38,409.75,194.38Z"/><path class="cls-3" d="M378.18,204c-17.52-30.89-3.22-53.25,7.3-64.12a13.23,13.23,0,0,0,.86-17.26L361.43,91.32a20.3,20.3,0,0,0-18.57-7.69A112,112,0,0,1,265,65.93a15.91,15.91,0,0,0-17.91,0,112,112,0,0,1-77.85,17.7,20.31,20.31,0,0,0-18.58,7.69l-24.9,31.32a13.23,13.23,0,0,0,.85,17.26c10.52,10.87,24.82,33.23,7.3,64.12,0,0-86.28,131.55,108.6,241.41a27.39,27.39,0,0,0,27.07,0C464.46,335.57,378.18,204,378.18,204Z"/><path class="cls-3" d="M259.7,448.76q15.09,10.5,32.88,20.87-9.34,5.44-19.49,10.83a36.44,36.44,0,0,1-34.08,0C-6.24,350.27,102.34,194.38,102.34,194.38c22-36.6,4.06-63.09-9.18-76A15,15,0,0,1,92.08,98l31.34-37.11a26.32,26.32,0,0,1,23.38-9.12c46.9,6,81.3-10.4,98-21a21,21,0,0,1,22.56,0,142,142,0,0,0,25.25,12.58,149.85,149.85,0,0,1-72.74,8.39,26.29,26.29,0,0,0-23.36,9.12L176.59,84.39,165.13,98a15,15,0,0,0,1.07,20.46c13.24,12.87,31.24,39.36,9.2,76C175.4,194.38,83.52,326.3,259.7,448.76Z"/><path class="cls-4" d="M259.7,448.76a27.42,27.42,0,0,1-17.19-3.32C47.63,335.57,133.91,204,133.91,204c17.52-30.9,3.22-53.24-7.31-64.12a13.26,13.26,0,0,1-.85-17.26l24.91-31.31a20.25,20.25,0,0,1,18.58-7.7c2.49.33,4.95.58,7.35.76L165.12,98a15,15,0,0,0,1.08,20.46c13.24,12.87,31.24,39.36,9.2,76C175.4,194.38,83.52,326.3,259.7,448.76Z"/><circle class="cls-2" cx="350.32" cy="143.86" r="16.61"/><circle class="cls-2" cx="325.84" cy="119.38" r="11.77"/><path class="cls-5" d="M365.5,286.78,335.58,177.65h4.73a5.43,5.43,0,0,0,0-10.86H272.58a17.53,17.53,0,0,0-7.89-9.73V145.29a8.77,8.77,0,0,0-17.53,0v11.77a17.55,17.55,0,0,0-7.9,9.73H171.53a5.43,5.43,0,0,0,0,10.86h5L146.59,286.78a3.56,3.56,0,0,0-3.54,3.56h0V298h0a32.27,32.27,0,0,0,32.27,32.27h11.05A32.27,32.27,0,0,0,218.64,298v-7.62a3.57,3.57,0,0,0-3.54-3.56L185.17,177.65h54.09a17.55,17.55,0,0,0,7.9,9.73V333.61H225.28a6.35,6.35,0,0,0-6.34,6.34v12.19H209.1a7.14,7.14,0,0,0-.8,0v0a7.65,7.65,0,0,0-6.91,7.67v7.24a4.24,4.24,0,0,0,4.24,4.24H306.2a4.24,4.24,0,0,0,4.24-4.24v-7.24a7.69,7.69,0,0,0-7.7-7.69h-9.83V340a6.34,6.34,0,0,0-6.34-6.34H264.69V187.38a17.53,17.53,0,0,0,7.89-9.73h54.34L297,286.78a3.56,3.56,0,0,0-3.53,3.56h0V298h0a32.27,32.27,0,0,0,32.27,32.27h11A32.27,32.27,0,0,0,369,298v-7.62A3.56,3.56,0,0,0,365.5,286.78Zm-213.23,0,28.57-104.2,28.58,104.2Zm150.4,0,28.58-104.2,28.57,104.2Z"/></g></svg>