<svg xmlns="http://www.w3.org/2000/svg" viewBox="0 0 512 512"><defs><style>.cls-1{fill:#3586cb;}.cls-2{fill:#a65c3b;}.cls-3{fill:#9e4830;}.cls-4{fill:#843a29;}.cls-5{fill:#c6775c;}</style></defs><g id="BULINE"><circle class="cls-1" cx="256" cy="256" r="256"/></g><g id="Icons"><rect class="cls-2" x="138.09" y="384.41" width="210" height="29.33"/><path class="cls-3" d="M368.45,455.78H117.73a10.22,10.22,0,0,1-9.92-12.69l3.88-15.57a20.61,20.61,0,0,1,20-15.64H354.48a20.62,20.62,0,0,1,20,15.64l3.87,15.57A10.22,10.22,0,0,1,368.45,455.78Z"/><rect class="cls-3" x="126.42" y="368.24" width="233.33" height="22" rx="11"/><path class="cls-3" d="M461.08,365.4h0a22.74,22.74,0,0,1-31.92.24L240.39,182.36,278,144.72,461.31,333.49A22.73,22.73,0,0,1,461.08,365.4Z"/><rect class="cls-4" x="248.21" y="162.09" width="52.6" height="32.8" transform="translate(-45.81 246.39) rotate(-45)"/><rect class="cls-2" x="178.89" y="69.41" width="90.19" height="118.1" rx="10.61" transform="translate(-25.23 196.01) rotate(-45)"/><path class="cls-3" d="M284.65,125.36l5.47,5.47a10.61,10.61,0,0,1,0,15L241.36,194.6a10.62,10.62,0,0,1-15,0l-68.5-68.5a10.62,10.62,0,0,1,0-15L161,108l63,63a10.6,10.6,0,0,0,15,0Z"/><polygon class="cls-3" points="158.57 126.82 224.89 193.14 206.98 203.83 198.27 209.04 143.27 154.04 148.28 145.13 158.57 126.82"/><path class="cls-2" d="M152.1,141.31h15.72a9,9,0,0,1,9,9v92.46a9,9,0,0,1-9,9H152.1a18.56,18.56,0,0,1-18.56-18.56V159.87A18.56,18.56,0,0,1,152.1,141.31Z" transform="translate(-93.52 167.29) rotate(-45)"/><polygon class="cls-3" points="248.96 47.15 303.96 102.15 298.96 111.06 288.66 129.37 222.34 63.05 240.26 52.36 248.96 47.15"/><path class="cls-2" d="M289,4.43H304.7a9,9,0,0,1,9,9v92.46a9,9,0,0,1-9,9H289a18.56,18.56,0,0,1-18.56-18.56V23A18.56,18.56,0,0,1,289,4.43Z" transform="translate(540.75 -104.68) rotate(135)"/><polygon class="cls-4" points="158.57 126.82 224.89 193.14 206.98 203.83 148.28 145.13 158.57 126.82"/><polygon class="cls-4" points="240.26 52.36 298.96 111.06 288.66 129.37 222.34 63.05 240.26 52.36"/><circle class="cls-5" cx="234.39" cy="96.46" r="11.59"/><circle class="cls-5" cx="217.32" cy="79.39" r="8.21"/></g></svg>