<svg xmlns="http://www.w3.org/2000/svg" viewBox="0 0 512 512"><defs><style>.cls-1{fill:#a99bd4;}.cls-2{fill:#9e4830;}.cls-3{fill:#f9dcd7;}.cls-4{fill:#fcc8bc;}.cls-5{fill:#e5b5ac;}.cls-6{fill:#27273d;}.cls-7{fill:#3e436d;}.cls-8{fill:#d6d6d6;}.cls-9{fill:#fff;}.cls-10{fill:#d2efff;}</style></defs><g id="BULINE"><circle class="cls-1" cx="256" cy="256" r="256"/></g><g id="Icons"><path class="cls-2" d="M245.51,24.4h24.33a89.34,89.34,0,0,1,89.34,89.34v41a0,0,0,0,1,0,0h-203a0,0,0,0,1,0,0v-41A89.34,89.34,0,0,1,245.51,24.4Z"/><path class="cls-3" d="M399.43,467c-86.64,59.2-205.08,58.38-290.86-2.11,8.83-55.17,22.89-123.32,81.7-146.48l.27-.11c8.85-3.41,21.55-3.29,28.85-8.92,18.41-14.19.2-31.63,10.51-46.36,5.58-8,42.53-12.08,50.43-6.89,12.23,8.05,2.44,17.17,4.49,30.25,3.32,21.17,31.77,30.87,32.64,31.35,59.35,28.6,74,89.3,82,149.27C396.21,469.18,391.52,407.51,399.43,467Z"/><path class="cls-3" d="M351.68,121.67v64.12c0,47.84-38.07,63.16-65.82,87.49a42.73,42.73,0,0,1-56.91,0c-27.75-24.33-65.82-39.65-65.82-87.49V121.67c0-2.17.07-4.33.22-6.46,3-44,36.85-79,78.7-80.84,1.13-.06,2.28-.08,3.42-.08h23.87c44.45,0,80.67,37.38,82.27,84.13C351.66,119.5,351.68,120.58,351.68,121.67Z"/><path class="cls-4" d="M200.75,185.79V121.66c0-45.79,33.2-83.37,75.46-87.06-2.27-.22-4.56-.32-6.88-.32H245.47c-45.48,0-82.34,39.13-82.34,87.38v31.75a18.87,18.87,0,0,0,0,37.73h.18c2.74,43.67,38.95,58.75,65.64,82.14a42.59,42.59,0,0,0,47.26,6.45,44.14,44.14,0,0,1-9.64-6.45C238.82,249,200.75,233.63,200.75,185.79Z"/><circle class="cls-3" cx="351.68" cy="172.27" r="18.87"/><path class="cls-2" d="M188.49,135.86a3.5,3.5,0,0,1-1.71-6.56c1.05-.58,25.87-14.11,47.92.12a3.5,3.5,0,1,1-3.79,5.88c-18.56-12-40.5,0-40.72.12A3.48,3.48,0,0,1,188.49,135.86Z"/><path class="cls-2" d="M324.43,135.86a3.5,3.5,0,0,1-1.9-.56c-18.47-11.92-40.5,0-40.72.12a3.5,3.5,0,0,1-3.4-6.12c1-.58,25.87-14.11,47.92.12a3.5,3.5,0,0,1-1.9,6.44Z"/><rect class="cls-4" x="244.25" y="191.14" width="27.41" height="10.39" rx="4.76"/><path class="cls-5" d="M163.67,164.77a7.51,7.51,0,0,0,0,15Z"/><path class="cls-4" d="M351.68,179.78a7.51,7.51,0,0,0,0-15Z"/><path class="cls-6" d="M399.43,467c-39.78,27.18-86.27,41.71-133.21,43.62q-8.22.33-16.44.16c-49.85-1.1-99.41-16.41-141.21-45.89,8.12-50.65,16.86-100.74,52.11-130.39a104.62,104.62,0,0,1,34.6-19.08q4.89-1.65,10.18-3L257.76,337s50.51-23.26,50.75-23.26a106,106,0,0,1,43.29,27.56C392.61,383.68,397.52,452.61,399.43,467Z"/><polygon class="cls-2" points="257.4 86.07 257.4 86.07 257.4 86.07 257.4 86.07"/><path class="cls-2" d="M351.68,91.74l-8.54-18.17-16.82-22L296.6,33.07H218.21l-29.72,18.5-16.82,22-8.54,18.17-3.21,22.66,3.21,39s16.64-18.5,21.42-39.33A44.55,44.55,0,0,1,195,93.66c9.83-10.64,27.72-22,55.09-11a19.63,19.63,0,0,0,14.65,0c27.37-11.05,45.26.34,55.09,11a44.55,44.55,0,0,1,10.44,20.42c4.78,20.83,21.42,39.33,21.42,39.33l3.21-39Z"/><path class="cls-5" d="M270.71,227.73h-25.5a3.5,3.5,0,0,1,0-7h25.5a3.5,3.5,0,0,1,0,7Z"/><path class="cls-5" d="M267.35,237.73H248.56a3.5,3.5,0,0,1,0-7h18.79a3.5,3.5,0,0,1,0,7Z"/><path class="cls-7" d="M356.12,332.71l-4.32,8.55L266.22,510.6q-8.22.33-16.44.16l-89.1-176.28-.89-1.77a9.18,9.18,0,0,1,2.49-11.33,50.88,50.88,0,0,1,24-10.1,9.21,9.21,0,0,1,9.82,5.61l43.68,106.84c6.67,16.31,29.76,16.31,36.43,0L319.4,318l.46-1.13a9.11,9.11,0,0,1,9.81-5.61,50.88,50.88,0,0,1,24,10.1A9.18,9.18,0,0,1,356.12,332.71Z"/><path class="cls-8" d="M257.41,356.29,218.49,476.9a10.94,10.94,0,0,0,6.34,13.56c21.82,8.54,43.49,8.71,65,.17A11,11,0,0,0,296.35,477Z"/><path class="cls-9" d="M300.38,374.39,327,304a5.37,5.37,0,0,0-2.71-6.75L305,288.08a5.33,5.33,0,0,0-6.09,1c-9.84,9.79-40.76,43.77-40.76,43.77s-31.35-34-41.19-43.78a5.33,5.33,0,0,0-6.08-1l-19.33,9.2a5.37,5.37,0,0,0-2.71,6.75l26.65,70.36a5.81,5.81,0,0,0,5.86,3.77l-24.71,70a7.51,7.51,0,0,0,3,8.78l33,21.58A7.51,7.51,0,0,0,244.18,473l8.14-84a5.57,5.57,0,0,1,5.57-5.05h.1a5.61,5.61,0,0,1,5.56,5.05l8.14,84a7.51,7.51,0,0,0,11.58,5.55l33-21.58a7.51,7.51,0,0,0,3-8.78L294.6,378.37l.14-.2A5.82,5.82,0,0,0,300.38,374.39Z"/><path class="cls-10" d="M241.54,161.29V175.4a15.74,15.74,0,0,1-15.74,15.73H197.94A15.75,15.75,0,0,1,182.2,175.4V161.29a15.74,15.74,0,0,1,15.74-15.74H225.8a15.51,15.51,0,0,1,5.08.84A15.75,15.75,0,0,1,241.54,161.29Z"/><path class="cls-9" d="M215.91,145.55l-16.75,45.58h-1.22a15.65,15.65,0,0,1-10.6-4.11l15.25-41.47Z"/><path class="cls-9" d="M230.88,146.39l-16.44,44.74h-8.61l16.76-45.58h3.21A15.51,15.51,0,0,1,230.88,146.39Z"/><path class="cls-10" d="M334.2,161.29V175.4a15.74,15.74,0,0,1-15.74,15.73H290.6a15.75,15.75,0,0,1-15.74-15.73V161.29a15.74,15.74,0,0,1,15.74-15.74h27.86a15.51,15.51,0,0,1,5.08.84A15.75,15.75,0,0,1,334.2,161.29Z"/><path class="cls-9" d="M308.57,145.55l-16.75,45.58H290.6A15.65,15.65,0,0,1,280,187l15.25-41.47Z"/><path class="cls-9" d="M323.54,146.39,307.1,191.13h-8.61l16.76-45.58h3.21A15.51,15.51,0,0,1,323.54,146.39Z"/><path class="cls-6" d="M232.21,192.85H191.54A12.84,12.84,0,0,1,178.71,180V154.88a12.84,12.84,0,0,1,12.83-12.83h40.67A12.84,12.84,0,0,1,245,154.88V180A12.85,12.85,0,0,1,232.21,192.85Zm-40.67-43.8a5.83,5.83,0,0,0-5.83,5.83V180a5.84,5.84,0,0,0,5.83,5.83h40.67A5.84,5.84,0,0,0,238,180V154.88a5.83,5.83,0,0,0-5.83-5.83Z"/><path class="cls-6" d="M324.87,192.85H284.2A12.84,12.84,0,0,1,271.37,180V154.88a12.84,12.84,0,0,1,12.83-12.83h40.67a12.84,12.84,0,0,1,12.83,12.83V180A12.85,12.85,0,0,1,324.87,192.85Zm-40.67-43.8a5.83,5.83,0,0,0-5.83,5.83V180a5.84,5.84,0,0,0,5.83,5.83h40.67A5.84,5.84,0,0,0,330.7,180V154.88a5.83,5.83,0,0,0-5.83-5.83Z"/><path class="cls-6" d="M274.87,158.38H241.54a3.5,3.5,0,1,1,0-7h33.33a3.5,3.5,0,0,1,0,7Z"/><ellipse class="cls-6" cx="210.33" cy="170" rx="7.88" ry="11.35"/><ellipse class="cls-6" cx="301.96" cy="170" rx="7.88" ry="11.35"/><path class="cls-6" d="M224.66,165.14a3.48,3.48,0,0,1-1.73-.46,25.35,25.35,0,0,0-25.08-.07,3.5,3.5,0,0,1-3.72-5.93c.63-.4,15.59-9.61,32.27-.08a3.5,3.5,0,0,1-1.74,6.54Z"/><path class="cls-6" d="M316.29,165.14a3.54,3.54,0,0,1-1.74-.46,25.37,25.37,0,0,0-25.07-.07,3.5,3.5,0,0,1-3.72-5.93c.62-.4,15.58-9.61,32.26-.08a3.5,3.5,0,0,1-1.73,6.54Z"/></g></svg>