<?xml version="1.0" encoding="utf-8"?>
<!-- Generator: Adobe Illustrator 21.0.0, SVG Export Plug-In . SVG Version: 6.00 Build 0)  -->
<svg version="1.1" id="Layer_1" xmlns="http://www.w3.org/2000/svg" xmlns:xlink="http://www.w3.org/1999/xlink" x="0px" y="0px"
	 viewBox="0 0 512 512" style="enable-background:new 0 0 512 512;" xml:space="preserve">
<style type="text/css">
	.st0{fill:#75B4E2;}
	.st1{fill:#FBC749;}
	.st2{fill:#FFFFFF;}
	.st3{fill:#E85558;}
	.st4{fill:#17171D;}
</style>
<g id="Copyright_Expiry">
	<g>
		<path class="st0" d="M198,253.4c0-35.4-28.8-64.2-64.2-64.2S69.6,218,69.6,253.4s28.8,64.2,64.2,64.2S198,288.8,198,253.4z
			 M133.8,311.4c-32,0-58-26-58-58s26-58,58-58s58,26,58,58S165.8,311.4,133.8,311.4z"/>
		<path class="st1" d="M378.2,167.4c6.5,0,11.8-5.3,11.8-11.8v-52.4c0-6.5-5.3-11.8-11.8-11.8s-11.8,5.3-11.8,11.8v52.4
			C366.4,162.1,371.7,167.4,378.2,167.4z"/>
		<path class="st1" d="M203.6,167.4c6.5,0,11.8-5.3,11.8-11.8v-52.4c0-6.5-5.3-11.8-11.8-11.8c-6.5,0-11.8,5.3-11.8,11.8v52.4
			C191.8,162.1,197.1,167.4,203.6,167.4z"/>
		<path class="st2" d="M133.8,206.6c-25.8,0-46.8,21-46.8,46.8s21,46.8,46.8,46.8s46.8-21,46.8-46.8S159.5,206.6,133.8,206.6z
			 M132.9,280.2c-14.8,0-26.9-12-26.9-26.9c0-14.8,12-26.9,26.9-26.9c9.6,0,18.5,5.1,23.3,13.4l-9.7,5.6c-2.8-4.8-8-7.8-13.5-7.8
			c-8.6,0-15.6,7-15.6,15.6c0,8.6,7,15.6,15.6,15.6c5.5,0,10.7-3,13.5-7.8l9.7,5.6C151.3,275.1,142.4,280.2,132.9,280.2z"/>
		<path class="st3" d="M430.6,135h-29.3v20.6c0,12.7-10.4,23.1-23.1,23.1s-23.1-10.4-23.1-23.1V135H226.7v20.6
			c0,12.7-10.4,23.1-23.1,23.1s-23.1-10.4-23.1-23.1V135h-29.3c-6.5,0-11.8,5.3-11.8,11.8v31.3c16.1,1.2,30.9,7.5,42.6,17.2h260.5
			v-48.5C442.4,140.3,437.1,135,430.6,135z"/>
		<path class="st1" d="M196.2,211.1h246.2v-4.5H193C194.1,208.1,195.2,209.5,196.2,211.1z"/>
		<path class="st2" d="M209.2,253.4c0,39.7-30.8,72.4-69.8,75.2v80.2c0,6.5,5.3,11.8,11.8,11.8h279.4c6.5,0,11.8-5.3,11.8-11.8
			V222.3H202.5C206.8,231.8,209.2,242.3,209.2,253.4z M325.5,246.3h23.1v133.5h-11.3V257.6h-11.8V246.3z M269,318.9v-0.1h-8.7v-11.3
			h8.7c13.7,0,24.8-11.1,24.8-24.8s-11.1-24.8-24.8-24.8c-13.7,0-24.8,11.1-24.8,24.8h-11.3c0-19.9,16.2-36.1,36.1-36.1
			c19.9,0,36.1,16.2,36.1,36.1c0,12.9-6.8,24.1-16.9,30.5c10.1,6.4,16.9,17.7,16.9,30.5c0,19.9-16.2,36.1-36.1,36.1
			c-19.9,0-36.1-16.2-36.1-36.1h11.3c0,13.7,11.1,24.8,24.8,24.8c13.7,0,24.8-11.1,24.8-24.8S282.7,318.9,269,318.9z"/>
		<path class="st4" d="M132.9,269c-8.6,0-15.6-7-15.6-15.6c0-8.6,7-15.6,15.6-15.6c5.5,0,10.7,3,13.5,7.8l9.7-5.6
			c-4.8-8.3-13.7-13.4-23.3-13.4c-14.8,0-26.9,12-26.9,26.9c0,14.8,12,26.9,26.9,26.9c9.6,0,18.5-5.1,23.3-13.4l-9.7-5.6
			C143.6,266,138.4,269,132.9,269z"/>
		<path class="st4" d="M133.8,195.4c-32,0-58,26-58,58s26,58,58,58s58-26,58-58S165.8,195.4,133.8,195.4z M133.8,300.1
			c-25.8,0-46.8-21-46.8-46.8s21-46.8,46.8-46.8s46.8,21,46.8,46.8S159.5,300.1,133.8,300.1z"/>
		<path class="st4" d="M269,368.5c-13.7,0-24.8-11.1-24.8-24.8h-11.3c0,19.9,16.2,36.1,36.1,36.1c19.9,0,36.1-16.2,36.1-36.1
			c0-12.9-6.8-24.1-16.9-30.5c10.1-6.4,16.9-17.7,16.9-30.5c0-19.9-16.2-36.1-36.1-36.1c-19.9,0-36.1,16.2-36.1,36.1h11.3
			c0-13.7,11.1-24.8,24.8-24.8c13.7,0,24.8,11.1,24.8,24.8s-11.1,24.8-24.8,24.8h-8.7v11.3h8.7v0.1c13.7,0,24.8,11.1,24.8,24.8
			S282.7,368.5,269,368.5z"/>
		<polygon class="st4" points="337.4,379.8 348.6,379.8 348.6,246.3 325.5,246.3 325.5,257.6 337.4,257.6 		"/>
		<path class="st4" d="M430.6,123.8h-29.3v-20.6c0-12.7-10.4-23.1-23.1-23.1s-23.1,10.4-23.1,23.1v20.6H226.7v-20.6
			c0-12.7-10.4-23.1-23.1-23.1s-23.1,10.4-23.1,23.1v20.6h-29.3c-12.7,0-23.1,10.4-23.1,23.1v31.3c-39,2.9-69.8,35.5-69.8,75.2
			s30.8,72.4,69.8,75.2v80.2c0,12.7,10.4,23.1,23.1,23.1h279.4c12.7,0,23.1-10.4,23.1-23.1V146.9
			C453.7,134.1,443.3,123.8,430.6,123.8z M366.4,103.2c0-6.5,5.3-11.8,11.8-11.8s11.8,5.3,11.8,11.8v52.4c0,6.5-5.3,11.8-11.8,11.8
			s-11.8-5.3-11.8-11.8V103.2z M191.8,103.2c0-6.5,5.3-11.8,11.8-11.8c6.5,0,11.8,5.3,11.8,11.8v52.4c0,6.5-5.3,11.8-11.8,11.8
			c-6.5,0-11.8-5.3-11.8-11.8V103.2z M133.8,317.6c-35.4,0-64.2-28.8-64.2-64.2s28.8-64.2,64.2-64.2S198,218,198,253.4
			S169.2,317.6,133.8,317.6z M442.4,408.8c0,6.5-5.3,11.8-11.8,11.8H151.2c-6.5,0-11.8-5.3-11.8-11.8v-80.2
			c39-2.9,69.8-35.5,69.8-75.2c0-11.1-2.4-21.6-6.7-31h239.9V408.8z M442.4,211.1H196.2c-1-1.5-2.1-3-3.3-4.5h249.5V211.1z
			 M442.4,195.4H182c-11.7-9.8-26.5-16-42.6-17.2v-31.3c0-6.5,5.3-11.8,11.8-11.8h29.3v20.6c0,12.7,10.4,23.1,23.1,23.1
			s23.1-10.4,23.1-23.1V135h128.4v20.6c0,12.7,10.4,23.1,23.1,23.1s23.1-10.4,23.1-23.1V135h29.3c6.5,0,11.8,5.3,11.8,11.8V195.4z"
			/>
	</g>
</g>
</svg>
