<svg xmlns="http://www.w3.org/2000/svg" viewBox="0 0 512 512"><defs><style>.cls-1{fill:#a99bd4;}.cls-2{fill:#f6c752;}.cls-3{fill:#e5a82e;}.cls-4{fill:#cc9129;}.cls-5{fill:#e0b044;}.cls-6{fill:#ffe5a4;}</style></defs><g id="BULINE"><circle class="cls-1" cx="256" cy="256" r="256"/></g><g id="Icons"><path class="cls-2" d="M456.13,317l-58-211.5s0-.08-.05-.13a4.34,4.34,0,0,0-.2-.5c-.06-.14-.11-.29-.18-.42s-.17-.27-.26-.4a4,4,0,0,0-.28-.4c-.1-.12-.22-.23-.33-.34s-.23-.24-.35-.34-.26-.18-.39-.27a4.81,4.81,0,0,0-.41-.27c-.13-.07-.27-.12-.41-.18a4.65,4.65,0,0,0-.52-.2l-.12,0c-.1,0-.2,0-.3-.05a4.68,4.68,0,0,0-.54-.09,4,4,0,0,0-.49,0,3.7,3.7,0,0,0-.47,0,4.85,4.85,0,0,0-.55.09l-.3.05-.12,0a3.17,3.17,0,0,0-.51.2c-.14.06-.28.11-.41.18l-.41.26-.4.28c-.12.1-.23.22-.34.33s-.23.22-.34.35-.18.26-.27.39-.19.27-.27.41-.12.27-.18.41-.14.34-.2.51a.5.5,0,0,1,0,.13l-58,211.5a5,5,0,0,0,3.5,6.15,5.11,5.11,0,0,0,1.33.17,5,5,0,0,0,4.82-3.67l53.18-193.92,53.17,193.92a5,5,0,0,0,4.82,3.67,5,5,0,0,0,4.83-6.32Z"/><path class="cls-3" d="M330.81,316h125a6.5,6.5,0,0,1,6.5,6.5v13.92a58.92,58.92,0,0,1-58.92,58.92H383.22a58.92,58.92,0,0,1-58.92-58.92V322.5A6.5,6.5,0,0,1,330.81,316Z"/><path class="cls-4" d="M403.23,395.33h-20a58.92,58.92,0,0,1-58.92-58.92V322.5a6.5,6.5,0,0,1,6.5-6.5h20a6.5,6.5,0,0,0-6.5,6.5v13.91A58.92,58.92,0,0,0,403.23,395.33Z"/><circle class="cls-2" cx="440.76" cy="349.35" r="9.32"/><circle class="cls-2" cx="440.76" cy="329.93" r="6.6"/><path class="cls-2" d="M181.52,317l-58-211.5a.5.5,0,0,1,0-.13c-.06-.17-.13-.34-.2-.5s-.11-.29-.18-.42a3.51,3.51,0,0,0-.27-.4,4,4,0,0,0-.27-.4l-.33-.34c-.12-.12-.23-.24-.35-.34s-.26-.18-.39-.27a3.74,3.74,0,0,0-.42-.27c-.13-.07-.27-.12-.4-.18a4.65,4.65,0,0,0-.52-.2l-.12,0c-.1,0-.2,0-.3-.05a5.07,5.07,0,0,0-.54-.09,4.1,4.1,0,0,0-.49,0,3.85,3.85,0,0,0-.48,0l-.55.09-.29.05-.12,0a2.85,2.85,0,0,0-.51.2l-.42.18c-.14.08-.27.17-.4.26a4,4,0,0,0-.4.28c-.12.1-.23.22-.34.33s-.23.22-.34.35-.18.26-.27.39-.19.27-.27.41-.12.27-.18.41a5.38,5.38,0,0,0-.2.51c0,.05,0,.09,0,.13L55.87,317a5,5,0,0,0,9.65,2.65l53.17-193.92,53.18,193.92a5,5,0,0,0,4.82,3.67,5.11,5.11,0,0,0,1.33-.17A5,5,0,0,0,181.52,317Z"/><rect class="cls-4" x="91.77" y="96.92" width="328" height="19.83" rx="9.92"/><path class="cls-2" d="M199.82,401.5H311.73a11.58,11.58,0,0,1,11.58,11.58V436.5a0,0,0,0,1,0,0H188.24a0,0,0,0,1,0,0V413.08A11.58,11.58,0,0,1,199.82,401.5Z"/><path class="cls-5" d="M323.3,425v11.5H188.24V413.08a11.57,11.57,0,0,1,11.57-11.58h.93v2.73A20.77,20.77,0,0,0,221.51,425Z"/><path class="cls-3" d="M170.29,435.33h171a14.06,14.06,0,0,1,14.06,14.06v13.2a7.74,7.74,0,0,1-7.74,7.74H164a7.74,7.74,0,0,1-7.74-7.74v-13.2A14.06,14.06,0,0,1,170.29,435.33Z"/><path class="cls-4" d="M355.31,461.8v.76a7.73,7.73,0,0,1-7.74,7.74H164a7.73,7.73,0,0,1-7.74-7.74v-13.2a14.06,14.06,0,0,1,12.61-14,14.13,14.13,0,0,0-1.11,5.49v13.2a7.73,7.73,0,0,0,7.74,7.74Z"/><path class="cls-3" d="M255.77,41.67h0a16,16,0,0,1,16,16V401.5a0,0,0,0,1,0,0h-32a0,0,0,0,1,0,0V57.67a16,16,0,0,1,16-16Z"/><rect class="cls-4" x="239.77" y="378.83" width="32" height="22.67"/><circle class="cls-2" cx="255.77" cy="106.83" r="32"/><circle class="cls-6" cx="255.77" cy="106.83" r="21"/><path class="cls-3" d="M56.19,316h125a6.5,6.5,0,0,1,6.5,6.5v13.92a58.92,58.92,0,0,1-58.92,58.92H108.61a58.92,58.92,0,0,1-58.92-58.92V322.5A6.5,6.5,0,0,1,56.19,316Z"/><path class="cls-4" d="M128.61,395.33h-20a58.92,58.92,0,0,1-58.92-58.92V322.5a6.5,6.5,0,0,1,6.5-6.5h20a6.5,6.5,0,0,0-6.5,6.5v13.91A58.92,58.92,0,0,0,128.61,395.33Z"/><circle class="cls-2" cx="166.15" cy="349.35" r="9.32"/><circle class="cls-2" cx="166.15" cy="329.93" r="6.6"/></g></svg>