<svg xmlns="http://www.w3.org/2000/svg" viewBox="0 0 512 512"><defs><style>.cls-1{fill:#a99bd4;}.cls-2{fill:#a65c3b;}.cls-3{fill:#3e436d;}.cls-4{fill:#32314b;}.cls-5{fill:#27273d;}.cls-6{fill:#9e4830;}.cls-7{fill:#823a29;}.cls-8{fill:#b76646;}</style></defs><g id="BULINE"><circle class="cls-1" cx="256" cy="256" r="256"/></g><g id="Icons"><path class="cls-2" d="M140.11,143.24l15.23,142.91h200l15.23-142.91A19.23,19.23,0,0,0,351.45,122H159.23A19.23,19.23,0,0,0,140.11,143.24Z"/><path class="cls-3" d="M334.84,286.15h-157l-8.61-210a32.7,32.7,0,0,1,32.67-34H310.78a32.7,32.7,0,0,1,32.67,34Z"/><path class="cls-4" d="M336.07,255.89l-1.24,30.26h-157l-8.6-210a32.68,32.68,0,0,1,30.05-33.92,34.24,34.24,0,0,0-.05,3.66L203,136.57A124.41,124.41,0,0,0,327.26,255.89Z"/><path class="cls-5" d="M325.52,93.71c0-2.76-5.37-5.09-12.82-5.92-.83-7.45-3.17-12.83-5.93-12.83s-5.09,5.38-5.92,12.83C293.4,88.62,288,91,288,93.71s5.38,5.1,12.83,5.93c.83,7.45,3.16,12.82,5.92,12.82s5.1-5.37,5.93-12.82C320.15,98.81,325.52,96.48,325.52,93.71Z"/><path class="cls-5" d="M275.09,93.71c0-2.76-5.38-5.09-12.82-5.92C261.44,80.34,259.1,75,256.34,75s-5.1,5.38-5.93,12.83c-7.44.83-12.82,3.16-12.82,5.92s5.38,5.1,12.82,5.93c.83,7.45,3.17,12.82,5.93,12.82s5.1-5.37,5.93-12.82C269.71,98.81,275.09,96.48,275.09,93.71Z"/><path class="cls-5" d="M224.66,93.71c0-2.76-5.38-5.09-12.83-5.92C211,80.34,208.67,75,205.91,75s-5.1,5.38-5.93,12.83c-7.45.83-12.82,3.16-12.82,5.92s5.37,5.1,12.82,5.93c.83,7.45,3.17,12.82,5.93,12.82s5.09-5.37,5.92-12.82C219.28,98.81,224.66,96.48,224.66,93.71Z"/><path class="cls-5" d="M300.31,140.71c0-2.76-5.38-5.09-12.83-5.92-.82-7.45-3.16-12.83-5.92-12.83s-5.1,5.38-5.93,12.83c-7.45.83-12.82,3.16-12.82,5.92s5.37,5.1,12.82,5.93c.83,7.45,3.17,12.82,5.93,12.82s5.1-5.37,5.92-12.82C294.93,145.81,300.31,143.48,300.31,140.71Z"/><path class="cls-5" d="M249.87,140.71c0-2.76-5.37-5.09-12.82-5.92-.83-7.45-3.17-12.83-5.93-12.83s-5.1,5.38-5.92,12.83c-7.45.83-12.83,3.16-12.83,5.92s5.38,5.1,12.83,5.93c.82,7.45,3.16,12.82,5.92,12.82s5.1-5.37,5.93-12.82C244.5,145.81,249.87,143.48,249.87,140.71Z"/><path class="cls-5" d="M325.52,187.46c0-2.76-5.37-5.09-12.82-5.92-.83-7.45-3.17-12.83-5.93-12.83s-5.09,5.38-5.92,12.83c-7.45.83-12.83,3.16-12.83,5.92s5.38,5.1,12.83,5.93c.83,7.45,3.16,12.82,5.92,12.82s5.1-5.37,5.93-12.82C320.15,192.56,325.52,190.23,325.52,187.46Z"/><path class="cls-5" d="M275.09,187.46c0-2.76-5.38-5.09-12.82-5.92-.83-7.45-3.17-12.83-5.93-12.83s-5.1,5.38-5.93,12.83c-7.44.83-12.82,3.16-12.82,5.92s5.38,5.1,12.82,5.93c.83,7.45,3.17,12.82,5.93,12.82s5.1-5.37,5.93-12.82C269.71,192.56,275.09,190.23,275.09,187.46Z"/><path class="cls-5" d="M224.66,187.46c0-2.76-5.38-5.09-12.83-5.92-.83-7.45-3.16-12.83-5.92-12.83s-5.1,5.38-5.93,12.83c-7.45.83-12.82,3.16-12.82,5.92s5.37,5.1,12.82,5.93c.83,7.45,3.17,12.82,5.93,12.82s5.09-5.37,5.92-12.82C219.28,192.56,224.66,190.23,224.66,187.46Z"/><path class="cls-5" d="M300.31,234.46c0-2.76-5.38-5.09-12.83-5.92-.82-7.45-3.16-12.83-5.92-12.83s-5.1,5.38-5.93,12.83c-7.45.83-12.82,3.16-12.82,5.92s5.37,5.1,12.82,5.93c.83,7.45,3.17,12.82,5.93,12.82s5.1-5.37,5.92-12.82C294.93,239.56,300.31,237.23,300.31,234.46Z"/><path class="cls-5" d="M249.87,234.46c0-2.76-5.37-5.09-12.82-5.92-.83-7.45-3.17-12.83-5.93-12.83s-5.1,5.38-5.92,12.83c-7.45.83-12.83,3.16-12.83,5.92s5.38,5.1,12.83,5.93c.82,7.45,3.16,12.82,5.92,12.82s5.1-5.37,5.93-12.82C244.5,239.56,249.87,237.23,249.87,234.46Z"/><rect class="cls-6" x="61.01" y="274.69" width="388.67" height="34.92" rx="11.12"/><path class="cls-2" d="M431.67,309.61v132.6A256,256,0,0,1,79,441V309.61Z"/><path class="cls-7" d="M107.27,309.61h86.67a0,0,0,0,1,0,0v8.08a10.25,10.25,0,0,1-10.25,10.25H117.52a10.25,10.25,0,0,1-10.25-10.25v-8.08a0,0,0,0,1,0,0Z"/><path class="cls-6" d="M168.79,327.94V496.75a252.88,252.88,0,0,1-36.37-16.51V327.94Z"/><path class="cls-7" d="M161.66,341.07v153q-11.32-4.49-22.1-10v-143a5.17,5.17,0,0,1,5.17-5.17h11.75A5.18,5.18,0,0,1,161.66,341.07Z"/><path class="cls-7" d="M316.61,309.61h86.67a0,0,0,0,1,0,0v8.08A10.25,10.25,0,0,1,393,327.94H326.86a10.25,10.25,0,0,1-10.25-10.25v-8.08A0,0,0,0,1,316.61,309.61Z"/><path class="cls-6" d="M378.12,327.94V481a254.13,254.13,0,0,1-36.36,16.23V327.94Z"/><path class="cls-7" d="M371,341.07V484.78q-10.77,5.42-22.1,9.83V341.07a5.18,5.18,0,0,1,5.17-5.17h11.76A5.18,5.18,0,0,1,371,341.07Z"/><rect class="cls-6" x="186.16" y="359.61" width="138.37" height="93.83" rx="9.43"/><rect class="cls-7" x="198.94" y="373.44" width="112.81" height="66" rx="7.14"/><circle class="cls-8" cx="409.19" cy="413.74" r="16.15"/><circle class="cls-8" cx="409.19" cy="380.1" r="11.44"/></g></svg>