<svg xmlns="http://www.w3.org/2000/svg" viewBox="0 0 512 512"><defs><style>.cls-1{fill:#7cc8fb;}.cls-2{fill:#fff;}.cls-3{fill:#3e436d;}.cls-4{fill:#e2e2e2;}.cls-5{fill:#db1b1b;}.cls-6{fill:#bc1b1b;}.cls-7{fill:#f6c752;}.cls-8{fill:#f7bb38;}</style></defs><g id="BULINE"><circle class="cls-1" cx="256" cy="256" r="256"/></g><g id="Icons"><path class="cls-2" d="M402.67,49.55V449.67a8.36,8.36,0,0,1-8.33,8.33H117.66a8.33,8.33,0,0,1-8.33-8.33V112.49L180.6,41.22H394.34A8.33,8.33,0,0,1,402.67,49.55Z"/><path class="cls-3" d="M355.12,183.64H149.72a5.85,5.85,0,0,1,0-11.7h205.4a5.85,5.85,0,1,1,0,11.7Z"/><path class="cls-3" d="M256.36,218.56H149.72a5.85,5.85,0,0,1,0-11.7H256.36a5.85,5.85,0,0,1,0,11.7Z"/><path class="cls-3" d="M355.12,218.56H274.91a5.85,5.85,0,0,1,0-11.7h80.21a5.85,5.85,0,1,1,0,11.7Z"/><path class="cls-3" d="M305.74,127.1H199.1a5.85,5.85,0,0,1,0-11.7H305.74a5.85,5.85,0,0,1,0,11.7Z"/><path class="cls-3" d="M355.12,257.2H149.72a5.85,5.85,0,0,1,0-11.7h205.4a5.85,5.85,0,1,1,0,11.7Z"/><path class="cls-4" d="M180.6,41.22V79.87A32.61,32.61,0,0,1,148,112.49H109.33Z"/><path class="cls-5" d="M285.25,339.92V421.2a6.64,6.64,0,0,1-9.71,5.9l-17.06-8.84a6.7,6.7,0,0,0-6.13,0l-17.06,8.84a6.64,6.64,0,0,1-9.71-5.9V339.92Z"/><path class="cls-5" d="M206,327.86c0,7.36-7.82,16.22-5.16,22.61,2.75,6.63,14.64,7.34,19.63,12.34s5.71,16.89,12.34,19.64c6.4,2.65,15.26-5.16,22.62-5.16s16.21,7.81,22.61,5.16c6.63-2.75,7.34-14.64,12.34-19.64s16.88-5.71,19.63-12.34c2.66-6.39-5.16-15.25-5.16-22.61s7.82-16.22,5.16-22.61c-2.75-6.63-14.64-7.34-19.63-12.34S284.66,276,278,273.27c-6.4-2.65-15.26,5.16-22.61,5.16s-16.22-7.81-22.62-5.16c-6.63,2.75-7.34,14.64-12.34,19.64s-16.88,5.71-19.63,12.34C198.17,311.64,206,320.5,206,327.86Z"/><path class="cls-6" d="M285.25,372.38v12.06c-1.76,4.34-3.61,8.56-7.23,10.06-6.39,2.66-15.25-5.16-22.6-5.16s-16.23,7.82-22.62,5.16c-3.62-1.49-5.47-5.71-7.22-10v-12c1.75,4.32,3.6,8.54,7.22,10,6.39,2.65,15.25-5.16,22.62-5.16s16.21,7.81,22.6,5.16C281.64,380.94,283.49,376.72,285.25,372.38Z"/><path class="cls-6" d="M254.21,369.44a80.41,80.41,0,0,0,3.56,8.08,12.72,12.72,0,0,0-2.35-.23c-7.36,0-16.22,7.81-22.62,5.16-6.63-2.75-7.34-14.64-12.33-19.64s-16.89-5.7-19.64-12.33c-2.65-6.41,5.16-15.27,5.16-22.62s-7.81-16.22-5.16-22.62c2.75-6.63,14.63-7.34,19.64-12.33s5.7-16.89,12.33-19.64c6.4-2.65,15.26,5.16,22.62,5.16a12.72,12.72,0,0,0,2.35-.23,79.42,79.42,0,0,0-3.56,8.08,20.63,20.63,0,0,1-3.91,6.63c-5,5-16.89,5.7-19.63,12.33-2.66,6.4,5.15,15.27,5.15,22.62s-7.81,16.21-5.15,22.62c2.74,6.63,14.63,7.34,19.63,12.33A20.63,20.63,0,0,1,254.21,369.44Z"/><circle class="cls-7" cx="255.42" cy="327.86" r="41.59"/><path class="cls-8" d="M250.3,362.81a20.63,20.63,0,0,1,3.91,6.63,41.6,41.6,0,0,1,0-83.16,20.63,20.63,0,0,1-3.91,6.63c-5,5-16.89,5.7-19.63,12.33-2.66,6.4,5.15,15.27,5.15,22.62s-7.81,16.21-5.15,22.62C233.41,357.11,245.3,357.82,250.3,362.81Z"/></g></svg>