<svg xmlns="http://www.w3.org/2000/svg" viewBox="0 0 512 512"><defs><style>.cls-1{fill:#f55b4b;}.cls-2{fill:#32314b;}.cls-3{fill:#27273d;}.cls-4{fill:#f9dcd7;}.cls-5{fill:#3e436d;}.cls-6{fill:#d6d6d6;}.cls-7{fill:#fff;}.cls-8{fill:#fcc8bc;}.cls-9{fill:#e5b2aa;}.cls-10{fill:#d54545;}.cls-11{fill:#c11e1e;}</style></defs><g id="BULINE"><circle class="cls-1" cx="256" cy="256" r="256"/></g><g id="Icons"><path class="cls-2" d="M322.58,305.75H190.26a43.91,43.91,0,0,1-43.83-46.6l8.51-139.06a86.49,86.49,0,0,1,86.4-82.58H271.5a86.49,86.49,0,0,1,86.4,82.58l8.51,139.06A43.91,43.91,0,0,1,322.58,305.75Z"/><rect class="cls-3" x="190.26" y="146.69" width="130.03" height="159.06"/><path class="cls-4" d="M399.43,468c-86.64,59.2-205.08,58.39-290.86-2.11,8.83-55.17,22.89-123.32,81.7-146.48l.27-.11c8.85-3.4,21.55-3.29,28.85-8.91,18.41-14.19.2-31.63,10.51-46.37,5.58-8,42.53-12.08,50.43-6.88,12.23,8,2.44,17.17,4.49,30.25,3.32,21.17,31.77,30.86,32.64,31.34,59.35,28.61,74,89.31,82,149.27C396.21,470.17,391.52,408.5,399.43,468Z"/><path class="cls-3" d="M399.43,468c-86.64,59.2-205.08,58.38-290.86-2.11C119.38,398.41,131.3,332,205.46,313.42L257.76,338s50.64-23.31,50.75-23.25C389.63,342,397,449.59,399.43,468Z"/><path class="cls-5" d="M356.12,333.71l-90,178.09q-5,.19-10.12.2-3.08,0-6.14-.07L159.79,333.71a9.18,9.18,0,0,1,2.49-11.33,50.87,50.87,0,0,1,24-10.11,9.13,9.13,0,0,1,9.82,5.62l43.68,106.84c6.67,16.31,29.76,16.31,36.43,0l43.69-106.84a9.11,9.11,0,0,1,9.81-5.62,50.87,50.87,0,0,1,24,10.11A9.18,9.18,0,0,1,356.12,333.71Z"/><path class="cls-6" d="M257.41,357.28,218.49,477.89a10.94,10.94,0,0,0,6.34,13.56c21.82,8.55,43.49,8.72,65,.17A11,11,0,0,0,296.35,478Z"/><path class="cls-7" d="M300.38,375.39,327,305a5.36,5.36,0,0,0-2.71-6.74L305,289.07a5.37,5.37,0,0,0-6.09,1c-9.84,9.8-40.76,43.77-40.76,43.77s-31.35-34-41.19-43.77a5.35,5.35,0,0,0-6.08-1l-19.33,9.21a5.36,5.36,0,0,0-2.71,6.74l26.65,70.37a5.84,5.84,0,0,0,5.86,3.77l-24.71,70a7.49,7.49,0,0,0,3,8.77l33,21.59A7.51,7.51,0,0,0,244.18,474l8.14-84a5.58,5.58,0,0,1,5.57-5.05h.1a5.62,5.62,0,0,1,5.56,5.05l8.14,84a7.51,7.51,0,0,0,11.58,5.55l33-21.59a7.49,7.49,0,0,0,3-8.77L294.6,379.36l.14-.19A5.83,5.83,0,0,0,300.38,375.39Z"/><path class="cls-4" d="M346.26,133.78v61.11c0,45.58-36.28,60.18-62.73,83.36a40.7,40.7,0,0,1-54.22,0c-26.45-23.18-62.73-37.78-62.73-83.36V133.78c0-.2,0-.42,0-.62.21-31.89,17.33-59.51,42.31-73.3.81-.45,22-8.8,32.89-9.27,1.08-.06,2.17-.08,3.25-.08H267.8a75.44,75.44,0,0,1,49.88,19,76.87,76.87,0,0,1,6,5.84,85.37,85.37,0,0,1,22.45,53.78h0C346.22,130.68,346.26,132.22,346.26,133.78Z"/><path class="cls-8" d="M202.44,194.89V133.78c0-43.64,31.63-79.45,71.9-83-2.16-.21-4.34-.3-6.55-.3H245.05c-43.34,0-78.47,37.29-78.47,83.27V164a18,18,0,0,0,0,35.95h.18c2.61,41.61,37.11,56,62.54,78.27a40.57,40.57,0,0,0,45,6.15,41.94,41.94,0,0,1-9.19-6.15C238.71,255.07,202.44,240.47,202.44,194.89Z"/><circle class="cls-4" cx="346.25" cy="182" r="17.98"/><path class="cls-3" d="M190.75,156.84a3.29,3.29,0,0,1-1.61-6.17c1-.55,24.63-13.43,45.62.11a3.3,3.3,0,1,1-3.57,5.54c-17.7-11.43-38.63,0-38.84.1A3.22,3.22,0,0,1,190.75,156.84Z"/><path class="cls-3" d="M320.29,156.84a3.35,3.35,0,0,1-1.79-.52c-17.62-11.38-38.63,0-38.84.11a3.29,3.29,0,0,1-3.2-5.76c1-.55,24.63-13.43,45.62.11a3.29,3.29,0,0,1-1.79,6.06Z"/><rect class="cls-8" x="242.99" y="199.98" width="26.12" height="9.9" rx="4.54"/><path class="cls-9" d="M167.1,174.85a7.16,7.16,0,0,0,0,14.31Z"/><path class="cls-8" d="M346.25,189.16a7.16,7.16,0,1,0,0-14.31Z"/><path class="cls-10" d="M255.56,228.42c-13.65-2.21-25.55,6.65-25.55,6.65,0,7.06,11.44,13.91,25.55,13.91h0c14.12,0,25.56-6.85,25.56-13.91C281.12,235.07,269.22,226.21,255.56,228.42Z"/><path class="cls-11" d="M273.75,235.68H242.82A4.65,4.65,0,0,1,245,233a38.61,38.61,0,0,1,16.44-4.93,27.6,27.6,0,0,0-5.84.31c-13.66-2.21-25.56,6.65-25.56,6.65,0,7.06,11.44,13.91,25.56,13.91a42.54,42.54,0,0,0,5.85-.4c-8.21-1.13-14.89-4.55-17.94-8.66a4.6,4.6,0,0,1-.68-1.39h30.95a1.43,1.43,0,0,0,0-2.85Z"/><path class="cls-2" d="M185.89,131.59H219a7.84,7.84,0,0,0,7.71-6.39l4.36-23a1,1,0,0,1,1.89.17v20.76a7.84,7.84,0,0,0,7.84,7.84h22.59a7.84,7.84,0,0,0,7.46-5.42l6.18-19a1,1,0,0,1,1.83,0l4.81,18.5a7.84,7.84,0,0,0,7.59,5.87h32.57a7.43,7.43,0,0,1,6.54,3.89L346.25,164l7.16-18.68V125.13a50.56,50.56,0,0,0-8.2-27.6L333.08,78.9,307.82,57.35a41.54,41.54,0,0,0-20.57-9.46l-35.91-5.6A41.53,41.53,0,0,0,234.8,43l-26.55,6.67-17,9.33A50.58,50.58,0,0,0,166.59,90.9l-7,27.4a50.58,50.58,0,0,0,1.18,28.91L166.58,164l12.52-28A7.44,7.44,0,0,1,185.89,131.59Z"/><path class="cls-5" d="M302.8,61.59c.86,9.92-.14,24.29-10.26,35.11a2.54,2.54,0,0,0,2,4.28c6.71-.47,16.55-1.86,22-5.93a2.55,2.55,0,0,1,3.94,1.06c1.36,3.55,3,9.31,2.33,14.81a2.53,2.53,0,0,0,4.5,1.86c4.86-5.93,8.94-16.51,2.89-34.17a2.54,2.54,0,0,0-4.45-.67l-.94,1.27a2.53,2.53,0,0,1-4.13-.06L307.41,59.94A2.53,2.53,0,0,0,302.8,61.59Z"/><ellipse class="cls-3" cx="211.86" cy="179.84" rx="7.51" ry="10.81"/><path class="cls-3" d="M225.52,175.16a3.29,3.29,0,0,1-1.63-.43c-12.48-7.13-23.81-.15-23.93-.08a3.29,3.29,0,1,1-3.51-5.56c.59-.38,14.83-9.15,30.7-.08a3.29,3.29,0,0,1-1.63,6.15Z"/><ellipse class="cls-3" cx="298.87" cy="179.84" rx="7.51" ry="10.81"/><path class="cls-3" d="M312.53,175.16a3.29,3.29,0,0,1-1.63-.43c-12.48-7.13-23.81-.15-23.93-.08a3.29,3.29,0,1,1-3.51-5.56c.6-.38,14.83-9.15,30.7-.08a3.29,3.29,0,0,1-1.63,6.15Z"/></g></svg>