<svg xmlns="http://www.w3.org/2000/svg" viewBox="0 0 512 512"><defs><style>.cls-1{fill:#f55b4b;}.cls-2{fill:#c1c1c1;}.cls-3{fill:#fff;}.cls-4{fill:#e5e5e5;}.cls-5{fill:#b2b1b1;}.cls-6{fill:#d1d1d1;}</style></defs><g id="BULINE"><circle class="cls-1" cx="256" cy="256" r="256"/></g><g id="Icons"><polygon class="cls-2" points="134.54 326.13 103.71 326.13 105.71 125.46 132.54 125.46 134.54 326.13"/><polygon class="cls-3" points="202.96 326.13 172.13 326.13 174.13 125.46 200.96 125.46 202.96 326.13"/><polygon class="cls-3" points="271.37 326.13 240.54 326.13 242.54 125.46 269.37 125.46 271.37 326.13"/><polygon class="cls-3" points="339.79 326.13 308.96 326.13 310.96 125.46 337.79 125.46 339.79 326.13"/><polygon class="cls-2" points="408.21 326.13 377.37 326.13 379.37 125.46 406.21 125.46 408.21 326.13"/><path class="cls-4" d="M100.46,125.17h37.25a0,0,0,0,1,0,0v5.29a4.25,4.25,0,0,1-4.25,4.25H104.71a4.25,4.25,0,0,1-4.25-4.25v-5.29A0,0,0,0,1,100.46,125.17Z"/><path class="cls-4" d="M168.92,125.17h37.25a0,0,0,0,1,0,0v5.29a4.25,4.25,0,0,1-4.25,4.25H173.17a4.25,4.25,0,0,1-4.25-4.25v-5.29A0,0,0,0,1,168.92,125.17Z"/><path class="cls-4" d="M237.38,125.17h37.25a0,0,0,0,1,0,0v5.29a4.25,4.25,0,0,1-4.25,4.25H241.63a4.25,4.25,0,0,1-4.25-4.25v-5.29A0,0,0,0,1,237.38,125.17Z"/><path class="cls-4" d="M305.83,125.17h37.25a0,0,0,0,1,0,0v5.29a4.25,4.25,0,0,1-4.25,4.25H310.08a4.25,4.25,0,0,1-4.25-4.25v-5.29A0,0,0,0,1,305.83,125.17Z"/><path class="cls-4" d="M374.29,125.17h37.25a0,0,0,0,1,0,0v5.29a4.25,4.25,0,0,1-4.25,4.25H378.54a4.25,4.25,0,0,1-4.25-4.25v-5.29A0,0,0,0,1,374.29,125.17Z"/><rect class="cls-5" x="120.5" y="409" width="271" height="29.17"/><rect class="cls-2" x="120.5" y="379.83" width="271" height="29.17"/><rect class="cls-6" x="120.5" y="350.67" width="271" height="29.17"/><rect class="cls-4" x="120.5" y="321.5" width="271" height="29.17"/><path class="cls-3" d="M134.16,331.84h-5.33V328a6.32,6.32,0,0,0-6.33-6.33h-5a24,24,0,1,0-22,0h-5A6.32,6.32,0,0,0,84.17,328v3.84H78.84A3.81,3.81,0,0,0,75,335.65v98.71a3.82,3.82,0,0,0,3.81,3.81h55.32a3.82,3.82,0,0,0,3.81-3.81V335.65A3.81,3.81,0,0,0,134.16,331.84Z"/><path class="cls-4" d="M107.16,321.67h-2a24,24,0,0,1,6.13-44.84,24,24,0,0,0-15.81,44.84h-5A6.32,6.32,0,0,0,84.16,328v3.84H78.83a3.8,3.8,0,0,0-3.8,3.81v98.71a3.81,3.81,0,0,0,3.8,3.81H95.5a3.82,3.82,0,0,1-3.81-3.81V335.65a3.81,3.81,0,0,1,3.81-3.81h5.32V328a6.3,6.3,0,0,1,1.46-4,24.44,24.44,0,0,0,4.22.38,24,24,0,0,0,4.82-.49,24.33,24.33,0,0,1-5.74-2A6.4,6.4,0,0,1,107.16,321.67Z"/><path class="cls-3" d="M433.16,331.84h-5.33V328a6.32,6.32,0,0,0-6.33-6.33h-5a24,24,0,1,0-22,0h-5a6.32,6.32,0,0,0-6.33,6.33v3.84h-5.33a3.81,3.81,0,0,0-3.81,3.81v98.71a3.82,3.82,0,0,0,3.81,3.81h55.32a3.82,3.82,0,0,0,3.81-3.81V335.65A3.81,3.81,0,0,0,433.16,331.84Z"/><path class="cls-4" d="M406.16,321.67h-2a24,24,0,0,1,6.13-44.84,24,24,0,0,0-15.81,44.84h-5a6.32,6.32,0,0,0-6.33,6.33v3.84h-5.33a3.8,3.8,0,0,0-3.8,3.81v98.71a3.81,3.81,0,0,0,3.8,3.81H394.5a3.82,3.82,0,0,1-3.81-3.81V335.65a3.81,3.81,0,0,1,3.81-3.81h5.32V328a6.3,6.3,0,0,1,1.46-4,24.44,24.44,0,0,0,4.22.38,24,24,0,0,0,4.82-.49,24.33,24.33,0,0,1-5.74-2A6.4,6.4,0,0,1,406.16,321.67Z"/><rect class="cls-3" x="75.03" y="89.88" width="361.93" height="35.28" rx="6.78"/><path class="cls-4" d="M81.82,89.88l167.36-71.2a17.41,17.41,0,0,1,13.64.11L430.18,89.88Z"/><path class="cls-2" d="M145.44,74.5,248.65,30.3a17.23,17.23,0,0,1,13.46.11L366.62,74.52a4.22,4.22,0,0,1-1.68,8.09H147.06A4.22,4.22,0,0,1,145.44,74.5Z"/><rect class="cls-6" x="57.5" y="438.17" width="397" height="32.33" rx="9.25"/></g></svg>