<svg xmlns="http://www.w3.org/2000/svg" viewBox="0 0 512 512"><defs><style>.cls-1{fill:#fcc8bc;}.cls-2{fill:#e5e5e5;}.cls-3{fill:#ccc;}.cls-4{fill:#fff;}.cls-5{fill:#3e436d;}.cls-6{fill:#32314b;}.cls-7{fill:#27273d;}.cls-8{fill:#a65c3b;}.cls-9{fill:#9e4830;}.cls-10{fill:#843a29;}.cls-11{fill:#c6775c;}</style></defs><g id="BULINE"><circle class="cls-1" cx="256" cy="256" r="256"/></g><g id="Icons"><polygon class="cls-2" points="311.48 447.25 200.52 447.25 203.99 408.89 205.66 390.58 306.34 390.58 308.01 408.89 311.48 447.25"/><polygon class="cls-3" points="308.01 408.89 203.99 408.89 205.66 390.58 306.34 390.58 308.01 408.89"/><path class="cls-4" d="M182,447.25H330a10.62,10.62,0,0,1,10.62,10.62V463a3.42,3.42,0,0,1-3.42,3.42H174.84a3.42,3.42,0,0,1-3.42-3.42v-5.14A10.62,10.62,0,0,1,182,447.25Z"/><rect class="cls-5" x="44.88" y="119.38" width="422.24" height="271.92" rx="15.24"/><path class="cls-6" d="M127.94,391.29H60.13a15.24,15.24,0,0,1-15.25-15.23V134.62a15.25,15.25,0,0,1,15.25-15.24h67.81a15.25,15.25,0,0,0-15.25,15.24V376.06A15.24,15.24,0,0,0,127.94,391.29Z"/><circle class="cls-7" cx="258" cy="129.44" r="5.14"/><rect class="cls-4" x="60.45" y="138.99" width="391.1" height="232.71" rx="13.57"/><path class="cls-2" d="M112.69,139v232.7H74a13.56,13.56,0,0,1-13.57-13.57V152.56A13.57,13.57,0,0,1,74,139Z"/><rect class="cls-8" x="209.14" y="321.35" width="93.51" height="13.06"/><path class="cls-9" d="M311.71,353.13H200.07a4.54,4.54,0,0,1-4.41-5.65l1.72-6.93a9.18,9.18,0,0,1,8.91-7h99.2a9.17,9.17,0,0,1,8.91,7l1.73,6.93A4.55,4.55,0,0,1,311.71,353.13Z"/><rect class="cls-9" x="203.94" y="314.16" width="103.9" height="9.8" rx="4.9"/><path class="cls-9" d="M353,312.89h0a10.13,10.13,0,0,1-14.21.11l-84.06-81.62,16.76-16.76,81.62,84.06A10.13,10.13,0,0,1,353,312.89Z"/><rect class="cls-10" x="258.17" y="222.36" width="23.42" height="14.61" transform="translate(-83.35 258.1) rotate(-45)"/><rect class="cls-8" x="227.31" y="181.09" width="40.16" height="52.59" rx="4.73" transform="translate(-74.18 235.67) rotate(-45)"/><path class="cls-9" d="M274.4,206l2.44,2.44a4.73,4.73,0,0,1,0,6.68l-21.72,21.71a4.71,4.71,0,0,1-6.68,0l-30.5-30.5a4.71,4.71,0,0,1,0-6.68l1.39-1.39,28.06,28.06a4.73,4.73,0,0,0,6.69,0Z"/><polygon class="cls-9" points="218.26 206.65 247.79 236.18 239.81 240.94 235.94 243.26 211.45 218.77 213.68 214.81 218.26 206.65"/><path class="cls-8" d="M215.38,213.1h7a4,4,0,0,1,4,4v41.17a4,4,0,0,1-4,4h-7a8.26,8.26,0,0,1-8.26-8.26V221.37A8.26,8.26,0,0,1,215.38,213.1Z" transform="translate(-104.59 222.88) rotate(-45)"/><polygon class="cls-9" points="258.51 171.18 283 195.67 280.77 199.63 276.19 207.79 246.66 178.25 254.63 173.49 258.51 171.18"/><path class="cls-8" d="M276.33,152.15h7a4,4,0,0,1,4,4v41.17a4,4,0,0,1-4,4h-7a8.26,8.26,0,0,1-8.26-8.26V160.42a8.26,8.26,0,0,1,8.26-8.26Z" transform="translate(599.04 105.36) rotate(135)"/><polygon class="cls-10" points="218.26 206.65 247.79 236.18 239.81 240.94 213.68 214.81 218.26 206.65"/><polygon class="cls-10" points="254.63 173.49 280.77 199.63 276.19 207.79 246.66 178.25 254.63 173.49"/><circle class="cls-11" cx="252.02" cy="193.13" r="5.16"/><circle class="cls-11" cx="244.42" cy="185.53" r="3.66"/></g></svg>