<svg xmlns="http://www.w3.org/2000/svg" viewBox="0 0 512 512"><defs><style>.cls-1{fill:#3586cb;}.cls-2{fill:#ccc;}.cls-3{fill:#e2e2e2;}.cls-4{fill:#fff;}.cls-5{fill:#3e436d;}.cls-6{fill:#f6c752;}.cls-7{fill:#e5a82e;}.cls-8{fill:#cc9129;}.cls-9{fill:#ffe5a4;}</style></defs><g id="BULINE"><circle class="cls-1" cx="256" cy="256" r="256"/></g><g id="Icons"><path class="cls-2" d="M324.84,53.53V385.42a6.91,6.91,0,0,1-6.91,6.91H88.43a6.91,6.91,0,0,1-6.91-6.91V105.73l59.12-59.11H317.93A6.91,6.91,0,0,1,324.84,53.53Z"/><path class="cls-3" d="M140.64,46.62V78.68a27.05,27.05,0,0,1-27.06,27.05H81.52Z"/><path class="cls-4" d="M364.29,76.11V408a6.95,6.95,0,0,1-6.91,6.91H127.87A6.92,6.92,0,0,1,121,408V128.32L180.08,69.2h177.3A6.92,6.92,0,0,1,364.29,76.11Z"/><path class="cls-5" d="M324.84,187.34H154.47a4.85,4.85,0,0,1,0-9.7H324.84a4.85,4.85,0,1,1,0,9.7Z"/><path class="cls-5" d="M242.92,216.31H154.47a4.86,4.86,0,0,1,0-9.71h88.45a4.86,4.86,0,0,1,0,9.71Z"/><path class="cls-5" d="M324.84,216.31H258.31a4.86,4.86,0,0,1,0-9.71h66.53a4.86,4.86,0,0,1,0,9.71Z"/><path class="cls-5" d="M324.84,277.32H233a4.85,4.85,0,1,1,0-9.7h91.81a4.85,4.85,0,0,1,0,9.7Z"/><path class="cls-5" d="M283.88,140.44H195.43a4.85,4.85,0,1,1,0-9.7h88.45a4.85,4.85,0,1,1,0,9.7Z"/><path class="cls-5" d="M324.84,248.36H154.47a4.86,4.86,0,0,1,0-9.71H324.84a4.86,4.86,0,0,1,0,9.71Z"/><path class="cls-5" d="M214.59,277.47H154.47a5,5,0,0,1,0-10h60.12a5,5,0,1,1,0,10Z"/><path class="cls-5" d="M324.84,309.37H154.47a4.85,4.85,0,1,1,0-9.7H324.84a4.85,4.85,0,1,1,0,9.7Z"/><path class="cls-5" d="M242.92,338.34H154.47a4.86,4.86,0,0,1,0-9.71h88.45a4.86,4.86,0,0,1,0,9.71Z"/><path class="cls-3" d="M180.08,69.21v32.06A27,27,0,0,1,153,128.32H121Z"/><path class="cls-5" d="M187.9,393.24h-.43a4.88,4.88,0,0,1-3.65-2.21l-6.21-9.65-7.42,4.4a4.84,4.84,0,0,1-4.76.11,45.57,45.57,0,0,1-4.77-2.91,37.29,37.29,0,0,1-3.55,2.7,4.85,4.85,0,0,1-5.3-8.13h0s.83-.55,2-1.48a13.69,13.69,0,0,1-2.15-7.29c0-10.06,11.31-16.46,12.61-17.16A4.84,4.84,0,0,1,171,354c3.56,8.59.53,16.19-3.6,21.8l.24.15,9-5.35a4.86,4.86,0,0,1,6.56,1.55l5.35,8.32,6.54-7.05a4.84,4.84,0,0,1,5-1.32l9.83,3.16h18.16a4.86,4.86,0,1,1,0,9.71H209.25a4.74,4.74,0,0,1-1.49-.24l-7.61-2.45-8.69,9.38A4.85,4.85,0,0,1,187.9,393.24Z"/><path class="cls-6" d="M426.31,407l-22.12-80.66s0,0,0-.05-.05-.13-.08-.19A.77.77,0,0,0,404,326c0-.05-.07-.1-.1-.16l-.11-.15-.12-.13-.13-.13-.15-.1-.16-.1-.16-.07-.19-.08-.05,0h-.11l-.21,0h-.37l-.21,0h-.11l-.05,0-.19.08-.16.07-.15.1-.16.11-.12.12-.13.13-.11.15c0,.05-.07.1-.1.16a.77.77,0,0,0-.07.16c0,.06-.05.12-.08.19s0,0,0,.05L378.4,407a1.91,1.91,0,0,0,1.33,2.34,2.24,2.24,0,0,0,.51.07,1.92,1.92,0,0,0,1.84-1.41l20.28-74,20.27,74a1.92,1.92,0,0,0,1.84,1.41,2.24,2.24,0,0,0,.51-.07A1.91,1.91,0,0,0,426.31,407Z"/><path class="cls-7" d="M378.52,406.65h47.67a2.48,2.48,0,0,1,2.48,2.48v5.31A22.47,22.47,0,0,1,406.2,436.9h-7.69A22.47,22.47,0,0,1,376,414.44v-5.31A2.48,2.48,0,0,1,378.52,406.65Z"/><path class="cls-8" d="M406.14,436.9h-7.63A22.47,22.47,0,0,1,376,414.43v-5.3a2.48,2.48,0,0,1,2.48-2.48h7.63a2.48,2.48,0,0,0-2.48,2.48v5.3A22.47,22.47,0,0,0,406.14,436.9Z"/><path class="cls-6" d="M321.59,407l-22.12-80.66s0,0,0-.05-.05-.13-.07-.19l-.07-.16c0-.05-.07-.1-.1-.16l-.11-.15-.13-.13a1.59,1.59,0,0,0-.13-.13l-.15-.1-.15-.1-.16-.07-.2-.08,0,0H298l-.2,0h-.37l-.21,0h-.11l-.05,0-.19.08-.16.07-.16.1-.15.11a.74.74,0,0,0-.13.12l-.13.13-.1.15a.86.86,0,0,0-.1.16.77.77,0,0,0-.07.16,1.08,1.08,0,0,0-.08.19s0,0,0,.05L273.67,407a1.91,1.91,0,0,0,1.34,2.34,2.23,2.23,0,0,0,.5.07,1.91,1.91,0,0,0,1.84-1.41l20.28-74,20.28,74a1.91,1.91,0,0,0,1.84,1.41,2.08,2.08,0,0,0,.5-.07A1.91,1.91,0,0,0,321.59,407Z"/><path class="cls-8" d="M382.51,452.16h-6.85v-8.49a4.42,4.42,0,0,0-4.41-4.42H328.57a4.43,4.43,0,0,0-4.42,4.42v8.49h-6.84a5.12,5.12,0,0,0-.56,0v0a5.33,5.33,0,0,0-4.81,5.35v5a3,3,0,0,0,2.95,2.95h70a3,3,0,0,0,3-2.95v-5A5.36,5.36,0,0,0,382.51,452.16Z"/><path class="cls-7" d="M408.67,323.1H356v-15a6.1,6.1,0,1,0-12.2,0v15H291.15a3.79,3.79,0,0,0,0,7.57h52.66V439.25H356V330.67h52.66a3.79,3.79,0,0,0,0-7.57Z"/><circle class="cls-6" cx="349.91" cy="326.88" r="12.2"/><circle class="cls-9" cx="349.91" cy="326.88" r="8.01"/><path class="cls-7" d="M273.8,406.65h47.67a2.48,2.48,0,0,1,2.48,2.48v5.31a22.47,22.47,0,0,1-22.47,22.47h-7.69a22.47,22.47,0,0,1-22.47-22.47v-5.31A2.48,2.48,0,0,1,273.8,406.65Z"/><path class="cls-8" d="M301.41,436.9h-7.62a22.47,22.47,0,0,1-22.47-22.47v-5.3a2.48,2.48,0,0,1,2.48-2.48h7.62a2.48,2.48,0,0,0-2.47,2.48v5.3A22.47,22.47,0,0,0,301.41,436.9Z"/></g></svg>