<svg xmlns="http://www.w3.org/2000/svg" viewBox="0 0 512 512"><defs><style>.cls-1{fill:#27273d;}.cls-2{fill:#f6c752;}.cls-3{fill:#f7bb38;}.cls-4{fill:#fff;}.cls-5{fill:#fcc8bc;}.cls-6{fill:#fab3a7;}.cls-7{fill:#f58d89;}.cls-8{fill:#d54545;}.cls-9{fill:#c11e1e;}.cls-10{fill:#f6d372;}.cls-11{fill:#dbdcdd;}</style></defs><g id="BULINE"><circle class="cls-1" cx="256" cy="256" r="256"/></g><g id="Icons"><path class="cls-2" d="M418.56,262.79c-23.32.72-26.75-28.1-26.75-28.1,4.37-27.68-7.51-55.42-14.73-69.14l-4.82-28.71A116.12,116.12,0,0,0,256.14,20.72h0A116.11,116.11,0,0,0,140,136.84l-5.11,28.71c-7.22,13.72-19.1,41.46-14.73,69.14,0,0-3.43,28.82-26.75,28.1,0,0,11.41,11.17,26.75,5.77,0,0-24.12,26.66-21.24,67L113.37,324s-5.49,66.29,39,113.85H359.58C404.12,390.33,398.63,324,398.63,324l14.42,11.53c2.88-40.35-21.24-67-21.24-67C407.15,274,418.56,262.79,418.56,262.79Z"/><path class="cls-3" d="M338,150.1l-80.72-31.37v-1.84l-2.36.92-2.37-.92v1.84L171.81,150.1s-30.88,78.57-25.13,120c0,0,6.06-8.12,15.79-11.19,0,0-18.66,49.72-3.58,93.53,0,0,45.7,76.05,93.64,107.34L350.9,352.42c15.08-43.81-3.58-93.53-3.58-93.53,9.73,3.07,15.8,11.19,15.8,11.19C368.86,228.67,338,150.1,338,150.1Z"/><path class="cls-4" d="M405.25,464a256.09,256.09,0,0,1-292.94,3.88c7.18-32.9,11.46-65.82,30.43-95,15.77-24.28,58.5-52.59,71-53.47,62.3-20.81,107.21,8.72,107.21,8.72,14.63,6.62,30.66,17.72,41.65,29.35h0C389.87,385.87,399.45,425.77,405.25,464Z"/><path class="cls-5" d="M229.79,277.47h54.85a0,0,0,0,1,0,0V322a27.43,27.43,0,0,1-27.43,27.43h0A27.43,27.43,0,0,1,229.79,322V277.47a0,0,0,0,1,0,0Z"/><path class="cls-5" d="M350.27,140.32v64.12c0,47.84-38.07,63.16-65.82,87.49a42.72,42.72,0,0,1-56.9,0c-27.75-24.33-65.82-39.65-65.82-87.49V140.32c0-2.17.07-4.33.21-6.46,3-44.05,36.86-79,78.7-80.84,1.13-.06,2.29-.08,3.42-.08h23.88c44.44,0,80.67,37.38,82.26,84.13C350.25,138.15,350.27,139.23,350.27,140.32Z"/><path class="cls-6" d="M199.35,204.44V140.31c0-45.79,33.19-83.37,75.46-87.06-2.27-.22-4.56-.32-6.88-.32H244.06c-45.48,0-82.33,39.13-82.33,87.38v31.75a18.87,18.87,0,1,0,0,37.73h.18c2.73,43.67,38.94,58.76,65.63,82.14a42.57,42.57,0,0,0,47.27,6.45,44.19,44.19,0,0,1-9.65-6.45C237.41,267.6,199.35,252.28,199.35,204.44Z"/><circle class="cls-5" cx="350.27" cy="190.92" r="18.87"/><rect class="cls-6" x="242.85" y="209.79" width="27.41" height="10.39" rx="4.76"/><path class="cls-7" d="M162.27,183.42a7.51,7.51,0,1,0,0,15Z"/><path class="cls-6" d="M350.27,198.43a7.51,7.51,0,1,0,0-15Z"/><path class="cls-8" d="M256.55,238.68c-13.57-2.2-25.38,6.61-25.38,6.61,0,7,11.36,13.82,25.38,13.82h0c14,0,25.38-6.81,25.38-13.82C281.93,245.29,270.12,236.48,256.55,238.68Z"/><path class="cls-9" d="M274.61,245.89H243.89a4.59,4.59,0,0,1,2.14-2.62,38.32,38.32,0,0,1,16.33-4.9,28,28,0,0,0-5.81.31c-13.56-2.19-25.38,6.61-25.38,6.61,0,7,11.36,13.82,25.38,13.82a43.72,43.72,0,0,0,5.82-.4c-8.15-1.12-14.8-4.53-17.82-8.61a4.55,4.55,0,0,1-.68-1.38h30.74a1.42,1.42,0,0,0,0-2.83Z"/><path class="cls-2" d="M342.26,80.89c-19.53-35.13-51-47.33-91.52-41.92-49.6,8.57-85.2,30.78-96,77.17V160l7,12.05c14.74-7.11,61.53-59.17,61.53-59.17l3,12.83C264.93,113.22,276,84.89,276,84.89l2.69,15.33c11.64-5.67,19.61-11.23,25.06-16.33,6.93,19,24.47,62.93,46.5,88.17l7.51-17.94V120.89Z"/><path class="cls-10" d="M306.39,45.65c.75,8.55-.11,20.95-8.84,30.29a2.18,2.18,0,0,0,1.73,3.69c5.79-.4,14.28-1.61,19-5.11a2.2,2.2,0,0,1,3.4.91c1.18,3.06,2.64,8,2,12.77a2.19,2.19,0,0,0,3.89,1.61c4.19-5.12,7.7-14.25,2.48-29.48a2.19,2.19,0,0,0-3.83-.58l-.81,1.1a2.19,2.19,0,0,1-3.57-.05L310.37,44.22A2.19,2.19,0,0,0,306.39,45.65Z"/><path class="cls-4" d="M139,136.26q118.53-12.14,231.78,0a7.72,7.72,0,0,1,6.53,5.37L387.76,175a7.74,7.74,0,0,1-6.1,10c-83.52,14.16-167.76,13.9-252.68-.08a7.75,7.75,0,0,1-6.2-9.76l9.53-33.29A7.71,7.71,0,0,1,139,136.26Z"/><path class="cls-11" d="M151.88,150.05c26.41,4.8,97.39,13.84,208.14-.05a1.52,1.52,0,0,1,.61,3C321.7,164.08,224.35,186,151,153A1.53,1.53,0,0,1,151.88,150.05Z"/><path class="cls-11" d="M138.9,159.29c6.53,3.89,26.26,14.53,55.71,20.34a1.83,1.83,0,0,1-.25,3.63c-14,.62-36.67-.78-58.33-12.64a1.85,1.85,0,0,1-.94-1.86l1.06-8.13A1.83,1.83,0,0,1,138.9,159.29Z"/><path class="cls-11" d="M370.78,159.29c-6.54,3.89-26.27,14.53-55.71,20.34a1.83,1.83,0,0,0,.25,3.63c14,.62,36.67-.78,58.33-12.64a1.86,1.86,0,0,0,.94-1.86l-1.06-8.13A1.83,1.83,0,0,0,370.78,159.29Z"/></g></svg>