<svg xmlns="http://www.w3.org/2000/svg" viewBox="0 0 512 512"><defs><style>.cls-1{fill:#7cc8fb;}.cls-2{fill:#4f4f74;}.cls-3{fill:#db1b1b;}.cls-4{fill:#f55b4b;}.cls-5{fill:#3e436d;}.cls-6{fill:#f6d372;}.cls-7{fill:#f6c752;}.cls-8{fill:#5e5e84;}.cls-9{fill:#38c487;}.cls-10{fill:#00b564;}.cls-11{fill:#4acc97;}.cls-12{fill:#fc715a;}.cls-13{fill:#e5a82e;}.cls-14{fill:#cc9129;}.cls-15{fill:#ffe5a4;}</style></defs><g id="BULINE"><circle class="cls-1" cx="256" cy="256" r="256"/></g><g id="Icons"><rect class="cls-2" x="102.64" y="369.85" width="305.38" height="82.27" rx="12.1"/><rect class="cls-3" x="152.66" y="286.93" width="276.17" height="82.27" rx="11.5"/><rect class="cls-4" x="171.75" y="302.06" width="238" height="52.01" rx="8.49"/><path class="cls-5" d="M408,437.66V440a12.09,12.09,0,0,1-12.09,12.1H114.73a12.1,12.1,0,0,1-12.1-12.1V382a12.09,12.09,0,0,1,12.1-12.09h4.68v55.71a12.09,12.09,0,0,0,12.09,12.09Z"/><rect class="cls-6" x="143.12" y="369.85" width="24.29" height="82.27"/><rect class="cls-6" x="339.19" y="369.85" width="24.29" height="82.27"/><rect class="cls-7" x="143.12" y="437.66" width="24.29" height="14.46"/><rect class="cls-7" x="339.19" y="437.66" width="24.29" height="14.46"/><circle class="cls-8" cx="319.72" cy="394.44" r="11.39"/><circle class="cls-8" cx="295.99" cy="394.44" r="8.07"/><rect class="cls-9" x="102.64" y="205.6" width="305.38" height="82.27" rx="12.1"/><path class="cls-10" d="M408,273.41v2.36a12.09,12.09,0,0,1-12.09,12.1H114.73a12.1,12.1,0,0,1-12.1-12.1V217.69a12.09,12.09,0,0,1,12.1-12.09h4.68v55.71a12.09,12.09,0,0,0,12.09,12.1Z"/><rect class="cls-2" x="143.12" y="205.6" width="24.29" height="82.27"/><rect class="cls-2" x="339.19" y="205.6" width="24.29" height="82.27"/><rect class="cls-5" x="143.12" y="273.41" width="24.29" height="14.46"/><rect class="cls-5" x="339.19" y="273.41" width="24.29" height="14.46"/><circle class="cls-11" cx="319.72" cy="230.18" r="11.39"/><circle class="cls-11" cx="295.99" cy="230.18" r="8.07"/><circle class="cls-12" cx="383.14" cy="320.81" r="11.39"/><circle class="cls-12" cx="359.41" cy="320.81" r="8.07"/><path class="cls-7" d="M329,148.33l-21.3-77.66a.08.08,0,0,0,0,0,1.07,1.07,0,0,0-.07-.19,1,1,0,0,0-.07-.15c0-.06-.06-.1-.09-.15l-.11-.15a1.36,1.36,0,0,0-.12-.12l-.12-.13-.15-.1-.15-.1-.15-.06-.19-.08h0l-.11,0a.69.69,0,0,0-.2,0h-.36l-.2,0-.11,0h0l-.19.08-.15.07a1.19,1.19,0,0,0-.15.09l-.15.1-.12.12-.12.13-.1.14a1.4,1.4,0,0,0-.1.16,1,1,0,0,0-.07.15,1.07,1.07,0,0,0-.07.19.08.08,0,0,0,0,0l-21.3,77.66a1.84,1.84,0,0,0,1.29,2.26,2,2,0,0,0,.48.06,1.82,1.82,0,0,0,1.77-1.35l19.53-71.2,19.53,71.2a1.82,1.82,0,0,0,1.77,1.35,2,2,0,0,0,.48-.06A1.84,1.84,0,0,0,329,148.33Z"/><path class="cls-13" d="M283,148h45.9a2.39,2.39,0,0,1,2.39,2.39v5.11a21.63,21.63,0,0,1-21.63,21.63h-7.4a21.63,21.63,0,0,1-21.63-21.63v-5.11A2.39,2.39,0,0,1,283,148Z"/><path class="cls-14" d="M309.56,177.09h-7.34a21.64,21.64,0,0,1-21.64-21.63v-5.11A2.39,2.39,0,0,1,283,148h7.34a2.39,2.39,0,0,0-2.38,2.39v5.11A21.63,21.63,0,0,0,309.56,177.09Z"/><path class="cls-7" d="M228.15,148.33,206.86,70.67a.08.08,0,0,1,0,0c0-.07-.05-.13-.07-.19a1,1,0,0,0-.07-.15.78.78,0,0,0-.1-.15l-.1-.15-.12-.12a.8.8,0,0,0-.13-.13l-.14-.1-.15-.1-.15-.06-.19-.08h-.05l-.11,0a.64.64,0,0,0-.2,0h-.35l-.2,0-.11,0h0l-.19.08a.69.69,0,0,0-.15.07.75.75,0,0,0-.15.09l-.15.1-.12.12-.13.13-.1.14c0,.06-.07.1-.1.16l-.06.15a1.08,1.08,0,0,0-.08.19s0,0,0,0L182,148.33a1.84,1.84,0,0,0,1.28,2.26,2.12,2.12,0,0,0,.49.06,1.82,1.82,0,0,0,1.77-1.35l19.53-71.2,19.52,71.2a1.84,1.84,0,0,0,1.77,1.35,2.05,2.05,0,0,0,.49-.06A1.83,1.83,0,0,0,228.15,148.33Z"/><path class="cls-14" d="M286.81,191.78h-6.59v-8.17a4.26,4.26,0,0,0-4.25-4.26h-41.1a4.27,4.27,0,0,0-4.25,4.26v8.17H224l-.53,0h0a5.14,5.14,0,0,0-4.63,5.15v4.85a2.84,2.84,0,0,0,2.84,2.84h67.42a2.84,2.84,0,0,0,2.84-2.84v-4.85A5.16,5.16,0,0,0,286.81,191.78Z"/><path class="cls-13" d="M312,67.52H261.3V53.1a5.88,5.88,0,0,0-11.75,0V67.52H198.84a3.64,3.64,0,0,0,0,7.28h50.71V179.35H261.3V74.8H312a3.64,3.64,0,0,0,0-7.28Z"/><circle class="cls-7" cx="255.42" cy="71.16" r="11.75"/><circle class="cls-15" cx="255.42" cy="71.16" r="7.71"/><path class="cls-13" d="M182.14,148H228a2.39,2.39,0,0,1,2.39,2.39v5.11a21.63,21.63,0,0,1-21.63,21.63h-7.4a21.63,21.63,0,0,1-21.63-21.63v-5.11A2.39,2.39,0,0,1,182.14,148Z"/><path class="cls-14" d="M208.73,177.09h-7.34a21.64,21.64,0,0,1-21.64-21.63v-5.11a2.39,2.39,0,0,1,2.39-2.39h7.34a2.39,2.39,0,0,0-2.39,2.39v5.11A21.64,21.64,0,0,0,208.73,177.09Z"/></g></svg>